<?xml version="1.0" encoding="UTF-8" standalone="no"?>
<!-- Created with Inkscape (http://www.inkscape.org/) -->

<svg
   width="16"
   height="16"
   id="svg1993"
   version="1.0"
   xmlns="http://www.w3.org/2000/svg"
   xmlns:svg="http://www.w3.org/2000/svg"
   xmlns:rdf="http://www.w3.org/1999/02/22-rdf-syntax-ns#"
   xmlns:cc="http://creativecommons.org/ns#"
   xmlns:dc="http://purl.org/dc/elements/1.1/">
  <defs
     id="defs1995" />
  <metadata
     id="metadata1998">
    <rdf:RDF>
      <cc:Work
         rdf:about="">
        <dc:format>image/svg+xml</dc:format>
        <dc:type
           rdf:resource="http://purl.org/dc/dcmitype/StillImage" />
      </cc:Work>
    </rdf:RDF>
  </metadata>
  <g
     id="layer1">
    <rect
       style="fill:#000000;fill-opacity:1;stroke:none;stroke-width:0.479999;-inkscape-stroke:none;stop-color:#000000"
       id="rect4461"
       width="16"
       height="16"
       x="0"
       y="0" />
    <g
       id="g2937"
       transform="matrix(1.51337,-0.405506,0.405506,1.51337,-197.8015,37.27902)"
       style="fill:#777;fill-opacity:1">
      <g
         aria-label="s"
         id="text2939"
         style="line-height:0%;stroke:#222222;stroke-width:0.420095">
        <path
           d="m 129.09192,18.585358 h 2.96604 v 0.05596 q -0.0187,1.025986 0.87675,1.025986 0.33578,0 0.61559,-0.186543 0.29847,-0.186543 0.29847,-0.485012 0,-0.485011 -1.17522,-0.932715 -1.67889,-0.6529 -2.20121,-1.025986 -1.17522,-0.839444 -1.17522,-2.275825 0,-1.585615 1.04464,-2.481022 0.98868,-0.820789 2.6116,-0.820789 1.64158,0 2.63026,0.764826 1.1006,0.858098 1.13791,2.443714 h -2.83545 q -0.0187,-0.970024 -0.87675,-0.970024 -0.29847,0 -0.57829,0.186543 -0.26116,0.167889 -0.26116,0.447703 0,0.466358 1.23119,0.914061 1.69754,0.615592 2.27582,1.007332 1.23119,0.876752 1.23119,2.350442 0,1.678887 -1.15657,2.555639 -1.02599,0.802135 -2.74218,0.802135 -3.78683,0 -3.91741,-3.376428 z"
           style="font-size:18.6543px;line-height:1.25"
           id="path2885" />
      </g>
    </g>
  </g>
</svg>
