<?xml version="1.0" encoding="UTF-8" standalone="no"?>
<!-- Created with Inkscape (http://www.inkscape.org/) -->

<svg
   width="161"
   height="75"
   id="svg2225"
   version="1.1"
   xmlns="http://www.w3.org/2000/svg"
   xmlns:svg="http://www.w3.org/2000/svg"
   xmlns:rdf="http://www.w3.org/1999/02/22-rdf-syntax-ns#"
   xmlns:cc="http://creativecommons.org/ns#"
   xmlns:dc="http://purl.org/dc/elements/1.1/">
  <defs
     id="defs2227" />
  <metadata
     id="metadata2230">
    <rdf:RDF>
      <cc:Work
         rdf:about="">
        <dc:format>image/svg+xml</dc:format>
        <dc:type
           rdf:resource="http://purl.org/dc/dcmitype/StillImage" />
      </cc:Work>
    </rdf:RDF>
  </metadata>
  <g
     id="layer1"
     transform="translate(-80.625,-322.77734)">
    <g
       aria-label="Shape"
       id="text2768"
       style="line-height:0%;font-family:'Primer Apples';fill:#ffffff;fill-opacity:1;stroke-width:0.67704345;font-variation-settings:normal;opacity:1;vector-effect:none;stroke:none;stroke-linecap:butt;stroke-linejoin:miter;stroke-miterlimit:4;stroke-dasharray:none;stroke-dashoffset:0;stroke-opacity:1;-inkscape-stroke:none;stop-color:#000000;stop-opacity:1"
       transform="matrix(0.70896337,0,0,0.70896337,-117.88475,-61.178724)">
      <path
         d="m 324.42468,549.35089 -2.34375,2.13068 q -1.06534,-1.17187 -6.6051,-4.15482 l 1.49147,-2.76989 q 2.02415,1.06534 3.94176,2.02415 2.23721,1.27841 3.51562,2.76988 z m -13.84942,-5.9659 -0.85227,2.98295 q -5.43323,-1.49147 -6.60511,-1.49147 -1.49147,0 -3.62215,0.53267 l -0.85228,-2.98296 q 2.55682,-0.85227 4.47443,-0.85227 1.49148,0 7.45738,1.81108 z m -16.08663,4.15483 q -4.58096,2.66335 -6.17897,6.92471 l -2.98296,-1.06534 q 1.91762,-5.3267 7.45738,-8.62926 z m 26.10083,44.31814 -2.98295,1.27841 q -1.27841,-3.30256 -6.81818,-9.375 l 2.34375,-2.13068 q 3.19602,3.51563 4.15482,4.79403 2.23722,2.76989 3.30256,5.43324 z m -12.99715,-12.67755 -1.06534,2.98295 q -6.60511,-2.55681 -12.35794,-8.09658 l 2.13068,-2.34375 q 5.3267,5.22017 11.2926,7.45738 z m -14.91476,-11.18607 -1.49148,2.76989 q -4.36789,-2.45028 -5.9659,-8.52272 l 3.19602,-0.85227 q 1.17187,4.79403 4.26136,6.6051 z m 27.2727,29.50992 q -0.53267,8.84232 -5.9659,12.99715 l -1.91761,-2.55682 q 4.26136,-3.19602 4.68749,-10.6534 z m -13.63635,15.3409 q -5.6463,0.74573 -7.77698,0.74573 -2.45028,0 -5.53977,-0.53267 l 0.42614,-3.19602 q 2.87642,0.53267 5.11363,0.53267 1.91761,0 7.35085,-0.74573 z m -15.55396,-4.6875 -1.27841,2.98295 Q 285.64631,609.43607 280,605.17471 l 1.91762,-2.55682 q 5.43323,4.04829 8.84232,5.53977 z"
         style="font-size:106.534px;line-height:1.25;letter-spacing:-6.06092;fill:#ffffff;fill-opacity:1;stroke-width:0.67704345;font-variation-settings:normal;vector-effect:none;stroke:none;stroke-linecap:butt;stroke-linejoin:miter;stroke-miterlimit:4;stroke-dasharray:none;stroke-dashoffset:0;stroke-opacity:1;-inkscape-stroke:none;stop-color:#000000;stop-opacity:1"
         id="path1388" />
      <path
         d="m 336.68754,543.38499 q 0,1.49148 -0.10653,4.47443 0,2.87642 0,4.36789 h -3.19602 q 0,-1.49147 0,-4.47443 0.10653,-2.87641 0.10653,-4.36789 z m 24.71589,28.33804 -0.85227,2.98296 q -6.17897,-1.70455 -6.81818,-1.70455 -1.49147,0 -3.30255,0.53267 l -1.06534,-2.98295 q 2.34375,-0.74574 4.26136,-0.74574 1.17187,0 7.77698,1.91761 z m 4.3679,17.57811 -3.19602,-0.42613 q 0.21306,-1.91762 0.21306,-3.62216 0,-4.26136 -1.49147,-8.20312 l 2.98295,-1.06534 q 1.70454,4.47443 1.70454,9.26846 0,1.81108 -0.21306,4.04829 z m -29.08379,-32.2798 q 0.10654,4.26136 0.10654,5.53977 v 1.27841 q 0,1.81108 -0.10654,4.15482 l -3.19602,-0.21306 q 0.10654,-2.23722 0.10654,-3.94176 v -1.38494 q 0,-1.06534 -0.10654,-5.43324 z m 10.54687,16.72584 q -3.72869,3.40909 -5.11363,7.77698 l -2.98295,-0.85227 q 1.59801,-5.3267 5.9659,-9.26846 z m 18.53692,30.68179 h -3.19602 q 0,-7.13778 -0.31961,-9.58806 l 3.19602,-0.42614 q 0.31961,2.76989 0.31961,5.75284 z m 9.26845,8.94886 q -4.36789,1.70454 -5.6463,1.70454 -2.23721,0 -3.83522,-1.91761 -1.49148,-1.91761 -1.70455,-4.26136 l 3.19602,-0.42614 q 0.3196,3.40909 2.34375,3.40909 0.74574,0 4.58096,-1.49148 z m -37.81957,-39.63065 q 0,1.59801 -0.3196,4.90056 -0.21307,3.30256 -0.21307,4.90057 h -3.19602 q 0,-1.59801 0.21307,-4.90057 0.3196,-3.30255 0.3196,-4.90056 z m -0.3196,23.01134 h -3.19602 q 0,-1.27841 -0.10653,-3.94176 -0.10654,-2.76988 -0.10654,-4.04829 h 3.19602 q 0,1.27841 0.10654,4.04829 0.10653,2.66335 0.10653,3.94176 z m 0.3196,5.96591 q -0.10653,0.85227 -0.10653,11.2926 h -3.19602 v -9.58806 q 0,0 0.10653,-1.91761 z"
         style="font-size:106.534px;line-height:1.25;letter-spacing:-6.06092;fill:#ffffff;fill-opacity:1;stroke-width:0.67704345;font-variation-settings:normal;vector-effect:none;stroke:none;stroke-linecap:butt;stroke-linejoin:miter;stroke-miterlimit:4;stroke-dasharray:none;stroke-dashoffset:0;stroke-opacity:1;-inkscape-stroke:none;stop-color:#000000;stop-opacity:1"
         id="path1390" />
      <path
         d="m 410.10084,573.42758 q -1.81107,0 -5.85937,-0.42614 -3.94175,-0.42613 -6.07243,-0.3196 l -0.21307,-3.19602 h 1.38494 q 1.91761,-0.10653 5.43323,0.3196 3.62216,0.42614 5.3267,0.42614 z m 3.62216,18.43038 -3.19602,0.42613 q -0.21307,-5.00709 -0.95881,-14.91475 l 3.19602,-0.42614 q 0.10654,5.0071 0.95881,14.91476 z m -18.11078,-17.79118 q -2.34375,0.53267 -7.35084,4.36789 l -1.91762,-2.55681 q 2.76989,-2.13068 4.0483,-2.87642 2.45028,-1.59801 4.36789,-2.13068 z m 28.01844,38.45877 q -4.79403,1.91762 -6.60511,1.91762 -3.51562,0 -5.75283,-6.07244 l 2.98295,-1.06534 q 1.49148,3.94176 2.87642,3.94176 1.06534,0 5.22016,-1.70455 z m -10.86647,-14.70169 q -1.70454,6.28551 -6.07243,10.12073 l -2.13068,-2.34375 q 3.72869,-3.19602 5.00709,-8.62925 z M 384.95882,582.5895 q -1.91761,3.40909 -2.23721,12.03834 l -3.19602,-0.21307 q 0.21307,-5.3267 0.42613,-6.81817 0.53267,-3.51562 2.23722,-6.49858 z m 16.2997,29.82952 q -2.45028,1.27841 -8.52272,1.49148 v -3.19602 q 3.08949,-0.10654 3.62216,-0.10654 1.91761,-0.21307 3.40909,-0.9588 z m -13.52981,-3.51562 -2.55682,1.91761 q -4.04829,-5.75284 -4.36789,-11.2926 l 3.19602,-0.21307 q 0.21306,4.68749 3.72869,9.58806 z"
         style="font-size:106.534px;line-height:1.25;letter-spacing:-6.06092;fill:#ffffff;fill-opacity:1;stroke-width:0.67704345;font-variation-settings:normal;vector-effect:none;stroke:none;stroke-linecap:butt;stroke-linejoin:miter;stroke-miterlimit:4;stroke-dasharray:none;stroke-dashoffset:0;stroke-opacity:1;-inkscape-stroke:none;stop-color:#000000;stop-opacity:1"
         id="path1392" />
      <path
         d="m 461.67469,582.5895 -3.19602,0.21307 q -0.21307,-3.08949 -3.40909,-7.67045 l 2.55682,-1.91761 q 3.72869,5.3267 4.04829,9.37499 z m -8.62925,-12.99715 -1.06534,2.98296 q -1.70455,-0.63921 -3.62216,-0.63921 -0.21307,0 -3.40909,0.21307 l -0.21306,-3.19602 q 3.30255,-0.21307 3.72869,-0.21307 2.34374,0 4.58096,0.85227 z m 10.22726,15.9801 q 0.3196,2.13068 0.3196,4.15483 0,2.55681 -0.85227,7.03124 l -3.19602,-0.6392 q 0.85227,-4.15483 0.85227,-6.39204 0,-1.70455 -0.3196,-3.51562 z m -21.6264,-11.71874 q -1.17187,0.53267 -2.98295,2.34375 -1.70455,1.81108 -2.13068,2.98295 l -2.98295,-1.06534 q 0.53267,-1.70454 2.76988,-4.04829 2.23721,-2.34375 4.04829,-3.19602 z m -9.26846,3.83523 h -3.19602 q -0.10653,-3.83523 -2.45028,-7.24431 l 2.55682,-1.91762 q 2.98295,4.26136 3.08948,9.16193 z m 28.76418,25.03549 q -2.34375,4.58096 -6.2855,9.80112 l -2.55682,-1.91761 q 3.83522,-5.0071 6.07244,-9.37499 z m -28.97725,-8.73579 -3.19601,0.21307 q -0.21307,-2.66335 -0.21307,-5.96591 v -5.85937 h 3.19602 v 6.28551 q 0,2.76988 0.21306,5.3267 z m 17.47158,19.38919 q -3.83522,0.42613 -5.0071,0.42613 -0.85227,0 -4.36789,-0.3196 l 0.21307,-3.19602 q 3.51562,0.3196 4.15482,0.3196 0.95881,0 4.58096,-0.42613 z m -16.93891,-6.71165 -3.19602,0.21307 q -0.3196,-3.40909 -0.3196,-7.56391 v -1.81108 h 3.19602 q 0,5.75284 0.3196,9.16192 z m -0.21306,4.47443 q -0.21307,5.11363 -0.10654,10.973 h -3.19602 q -0.10653,-2.76988 -0.10653,-4.04829 v -1.27841 q 0,-2.23721 0.21307,-5.85937 z m 0,14.48863 q 0,1.59801 0,4.79403 -0.10654,3.19602 -0.10654,4.79403 h -3.19602 q 0,-1.59801 0.10654,-4.79403 0,-3.19602 0,-4.79403 z m 0.42613,14.16902 q -0.42613,5.22016 -0.42613,5.00709 0,1.06534 0.21306,1.91762 l -3.19602,0.6392 q -0.21306,-1.17187 -0.21306,-2.45028 0,-0.10654 0.42613,-5.3267 z"
         style="font-size:106.534px;line-height:1.25;letter-spacing:-6.06092;fill:#ffffff;fill-opacity:1;stroke-width:0.67704345;font-variation-settings:normal;vector-effect:none;stroke:none;stroke-linecap:butt;stroke-linejoin:miter;stroke-miterlimit:4;stroke-dasharray:none;stroke-dashoffset:0;stroke-opacity:1;-inkscape-stroke:none;stop-color:#000000;stop-opacity:1"
         id="path1394" />
      <path
         d="m 503.76695,572.14917 -1.70455,2.76988 q -2.66335,-1.81107 -7.67044,-2.23721 l 0.21306,-3.19602 q 5.85937,0.53267 9.16193,2.66335 z m 2.55681,3.72869 q 0.42614,2.45028 0.42614,3.94176 0,3.19602 -1.81108,6.17897 l -2.76988,-1.70455 q 1.38494,-2.13068 1.38494,-4.47442 0,-1.27841 -0.42614,-3.30256 z m -16.19316,-3.40909 q -4.15483,0.85227 -6.07244,4.15483 l -2.76989,-1.70455 q 2.66335,-4.36789 8.20312,-5.6463 z m 11.6122,17.47158 q -4.47443,3.83522 -8.73579,4.79403 l -0.6392,-3.19602 q 3.40909,-0.74574 7.24431,-3.94176 z m -21.3068,-8.41619 q -2.76988,3.19602 -3.08948,7.56391 l -3.19602,-0.21306 q 0.42613,-5.43324 3.94175,-9.48153 z m 7.99005,12.99715 h -7.56391 v -3.19602 h 7.56391 z m 17.89771,14.59516 q -5.85937,4.58096 -10.6534,4.79403 l -0.21306,-3.19602 q 3.83522,-0.21307 8.94885,-4.15483 z m -25.88776,-3.94176 -2.76988,1.49147 q -2.34375,-4.26136 -3.51562,-10.22726 l 3.19602,-0.6392 q 0.9588,5.53976 3.08948,9.37499 z m 10.973,7.03124 -1.06534,2.98295 q -4.58096,-1.70454 -7.99005,-4.47442 l 1.91762,-2.55682 q 3.08948,2.45028 7.13777,4.04829 z"
         style="font-size:106.534px;line-height:1.25;letter-spacing:-6.06092;fill:#ffffff;fill-opacity:1;stroke-width:0.67704345;font-variation-settings:normal;vector-effect:none;stroke:none;stroke-linecap:butt;stroke-linejoin:miter;stroke-miterlimit:4;stroke-dasharray:none;stroke-dashoffset:0;stroke-opacity:1;-inkscape-stroke:none;stop-color:#000000;stop-opacity:1"
         id="path1396" />
    </g>
  </g>
</svg>
